<?xml version="1.0" encoding="utf-8"?>
<!-- Generator: Adobe Illustrator 22.0.1, SVG Export Plug-In . SVG Version: 6.00 Build 0)  -->
<svg version="1.1" id="Layer_1" xmlns="http://www.w3.org/2000/svg" xmlns:xlink="http://www.w3.org/1999/xlink" x="0px" y="0px"
	 viewBox="0 0 300 300" style="enable-background:new 0 0 300 300;" xml:space="preserve">
<style type="text/css">
	.st0{fill:#8D9093;}
	.st1{fill:#B2B1B2;}
	.st2{fill:#B31E3B;}
	.st3{fill:#862634;}
	.st4{fill:#213F7D;}
	.st5{fill:#8DB7E2;}
	.st6{fill:#F4E600;}
</style>
<rect x="80.6" y="146.7" transform="matrix(0.7071 -0.7071 0.7071 0.7071 -82.4567 105.5614)" class="st0" width="11.2" height="11.2"/>
<path class="st0" d="M281.9,159.8"/>
<path class="st0" d="M271.9,160.3"/>
<polygon class="st1" points="211.7,159.8 203.6,151.7 211.7,143.9 219.7,151.8 "/>
<polygon class="st2" points="285.4,278.9 148.7,290.7 10.5,281.5 148.7,10.4 "/>
<polyline class="st3" points="148.7,10.4 287,281.5 148.7,290.7 "/>
<polygon class="st4" points="148.7,203.5 226.8,163.7 182.6,77.1 93,119 70.5,163.9 "/>
<polyline class="st0" points="148.7,203.5 226.9,163.7 182.6,77.1 148.7,10.4 "/>
<polyline class="st5" points="148.7,148.8 164,124.9 204.4,119.8 148.7,10.4 "/>
<rect x="186.8" y="112.5" transform="matrix(0.707 -0.7072 0.7072 0.707 -27.863 172.3375)" class="st5" width="14.5" height="14.5"/>
<rect x="174" y="113.2" transform="matrix(0.7072 -0.707 0.707 0.7072 -32.0923 163.4392)" class="st5" width="14.5" height="14.5"/>
<polygon class="st5" points="148.8,148.8 176,121.6 165.9,111.5 "/>
<polyline class="st6" points="148.8,10.4 92.9,119.6 133.6,124.9 148.8,148.8 "/>
<polygon class="st6" points="103.4,130.1 92.9,119.6 103.4,109.5 113.7,119.8 "/>
<rect x="109" y="113.2" transform="matrix(0.707 -0.7072 0.7072 0.707 -51.1479 117.5096)" class="st6" width="14.5" height="14.5"/>
<polygon class="st6" points="148.7,148.8 121.5,121.6 131.6,111.5 "/>
</svg>
