<?xml version="1.0" encoding="utf-8"?>
<!-- Generator: Adobe Illustrator 22.0.1, SVG Export Plug-In . SVG Version: 6.00 Build 0)  -->
<svg version="1.1" id="Layer_1" xmlns="http://www.w3.org/2000/svg" xmlns:xlink="http://www.w3.org/1999/xlink" x="0px" y="0px"
	 viewBox="0 0 300 300" style="enable-background:new 0 0 300 300;" xml:space="preserve">
<style type="text/css">
	.st0{fill:#862634;}
	.st1{fill:#8D9093;}
	.st2{fill:#B2B1B2;}
	.st3{fill:#F4E600;}
	.st4{fill:#853B49;}
	.st5{fill:#A8C5DD;}
	.st6{fill:#8DB7E2;}
	.st7{fill:#B31E3B;}
	.st8{fill:#324C78;}
	.st9{fill:#213F7D;}
	.st10{fill:#EADA48;}
</style>
<polyline class="st0" points="245.9,284.6 138.9,277.5 185.5,186.3 245.9,216.6 "/>
<rect x="426.6" y="146.7" transform="matrix(0.7071 -0.7071 0.7071 0.7071 18.8933 350.2345)" class="st1" width="11.2" height="11.2"/>
<path class="st1" d="M627.9,159.8"/>
<path class="st1" d="M617.9,160.3"/>
<polygon class="st2" points="557.7,159.8 549.6,151.7 557.7,143.9 565.7,151.8 "/>
<rect x="205.2" y="146.7" transform="matrix(0.7071 -0.7071 0.7071 0.7071 -45.9543 193.6636)" class="st3" width="11.2" height="11.2"/>
<polygon class="st2" points="85.3,159.8 93.4,151.7 85.3,143.9 77.3,151.8 "/>
<polygon class="st4" points="631.4,278.9 494.7,290.7 356.5,281.5 494.7,10.4 "/>
<polyline class="st0" points="494.7,10.4 633,281.5 494.7,290.7 "/>
<polygon class="st5" points="494.7,203.5 572.8,163.7 528.6,77.1 494.7,10.4 460.3,77.1 416.5,163.9 "/>
<polyline class="st6" points="494.7,203.5 572.9,163.7 528.6,77.1 494.7,10.4 "/>
<polyline class="st1" points="494.7,148.8 510,124.9 550.4,119.8 494.7,10.4 "/>
<rect x="532.8" y="112.5" transform="matrix(0.707 -0.7072 0.7072 0.707 73.5518 417.0582)" class="st1" width="14.5" height="14.5"/>
<rect x="520" y="113.2" transform="matrix(0.7072 -0.707 0.707 0.7072 69.2501 408.0521)" class="st1" width="14.5" height="14.5"/>
<polygon class="st1" points="494.8,148.8 522,121.6 511.9,111.5 "/>
<polyline class="st2" points="494.8,10.4 438.9,119.6 479.6,124.9 494.8,148.8 "/>
<polygon class="st2" points="449.4,130.1 438.9,119.6 449.4,109.5 459.7,119.8 "/>
<rect x="455" y="113.2" transform="matrix(0.707 -0.7072 0.7072 0.707 50.2489 362.2308)" class="st2" width="14.5" height="14.5"/>
<polygon class="st2" points="494.7,148.8 467.5,121.6 477.6,111.5 "/>
<polygon class="st4" points="70.2,163.7 226.5,163.9 286.5,281.5 148.3,290.7 11.6,278.9 "/>
<polyline class="st7" points="148.3,290.7 10,281.5 70.1,163.7 148.3,203.5 "/>
<polygon class="st8" points="226.5,163.9 204.1,119.6 160.2,119.7 148.3,148.8 142.4,119.7 92.6,119.8 70.3,163.7 148.3,203.5 "/>
<polyline class="st9" points="148.3,148.8 122.8,123.7 101.4,123.4 92.6,119.8 70.1,163.7 148.3,203.5 "/>
<polyline class="st3" points="148.3,10.4 92.6,119.8 133,124.9 148.3,148.8 "/>
<rect x="95.6" y="112.5" transform="matrix(0.7071 -0.7071 0.7071 0.7071 -54.5609 107.821)" class="st3" width="14.5" height="14.5"/>
<rect x="108.4" y="113.2" transform="matrix(0.7072 -0.707 0.707 0.7072 -51.3008 117.052)" class="st3" width="14.5" height="14.5"/>
<polygon class="st3" points="148.2,148.8 121,121.5 131.1,111.5 "/>
<polyline class="st10" points="148.2,148.8 163.4,124.9 204.1,119.6 148.2,10.4 "/>
<polygon class="st10" points="193.6,130.1 204.1,119.6 193.6,109.5 183.3,119.8 "/>
<rect x="173.5" y="113.3" transform="matrix(0.707 -0.7072 0.7072 0.707 -32.2782 163.161)" class="st10" width="14.5" height="14.5"/>
<polygon class="st10" points="148.3,148.8 175.5,121.5 165.4,111.5 "/>
</svg>
